HIERARCHY
ROOT root
{
	OFFSET 0.000000 0.000000 0.000000
	CHANNELS 6 Xposition Yposition Zposition Zrotation Yrotation Xrotation
	JOINT lhip
	{
		OFFSET 0.058581 -0.082280 -0.017664
		CHANNELS 3 Zrotation Yrotation Xrotation
		JOINT lknee
		{
			OFFSET 0.043451 -0.386469 0.008037
			CHANNELS 3 Zrotation Yrotation Xrotation
			JOINT lankle
			{
				OFFSET -0.014790 -0.426874 -0.037428
				CHANNELS 3 Zrotation Yrotation Xrotation
				JOINT ltoe
				{
					OFFSET 0.041054 -0.060286 0.122042
					CHANNELS 3 Zrotation Yrotation Xrotation
					End Site
					{
						OFFSET 0.000000 0.000000 0.000000
					}
				}
			}
		}
	}
	JOINT rhip
	{
		OFFSET -0.060310 -0.090513 -0.013543
		CHANNELS 3 Zrotation Yrotation Xrotation
		JOINT rknee
		{
			OFFSET -0.043257 -0.383688 -0.004843
			CHANNELS 3 Zrotation Yrotation Xrotation
			JOINT rankle
			{
				OFFSET 0.019056 -0.420046 -0.034562
				CHANNELS 3 Zrotation Yrotation Xrotation
				JOINT rtoe
				{
					OFFSET -0.034840 -0.062106 0.130323
					CHANNELS 3 Zrotation Yrotation Xrotation
					End Site
					{
						OFFSET 0.000000 0.000000 0.000000
					}
				}
			}
		}
	}
	JOINT lowerback
	{
		OFFSET 0.004439 0.124404 -0.038385
		CHANNELS 3 Zrotation Yrotation Xrotation
		JOINT upperback
		{
			OFFSET 0.004488 0.137956 0.026820
			CHANNELS 3 Zrotation Yrotation Xrotation
			JOINT chest
			{
				OFFSET -0.002265 0.056032 0.002855
				CHANNELS 3 Zrotation Yrotation Xrotation
				JOINT lowerneck
				{
					OFFSET -0.013390 0.211636 -0.033468
					CHANNELS 3 Zrotation Yrotation Xrotation
					JOINT upperneck
					{
						OFFSET 0.010113 0.088937 0.050410
						CHANNELS 3 Zrotation Yrotation Xrotation
						End Site
						{
							OFFSET 0.000000 0.000000 0.000000
						}
					}
				}
				JOINT lclavicle
				{
					OFFSET 0.071702 0.114000 -0.018898
					CHANNELS 3 Zrotation Yrotation Xrotation
					JOINT lshoulder
					{
						OFFSET 0.122921 0.045205 -0.019046
						CHANNELS 3 Zrotation Yrotation Xrotation
						JOINT lelbow
						{
							OFFSET 0.255332 -0.015649 -0.022946
							CHANNELS 3 Zrotation Yrotation Xrotation
							JOINT lwrist
							{
								OFFSET 0.265709 0.012698 -0.007375
								CHANNELS 3 Zrotation Yrotation Xrotation
								End Site
								{
									OFFSET 0.000000 0.000000 0.000000
								}
							}
						}
					}
				}
				JOINT rclavicle
				{
					OFFSET -0.082954 0.112472 -0.023707
					CHANNELS 3 Zrotation Yrotation Xrotation
					JOINT rshoulder
					{
						OFFSET -0.113228 0.046853 -0.008472
						CHANNELS 3 Zrotation Yrotation Xrotation
						JOINT relbow
						{
							OFFSET -0.260127 -0.014369 -0.031269
							CHANNELS 3 Zrotation Yrotation Xrotation
							JOINT rwrist
							{
								OFFSET -0.269108 0.006794 -0.006027
								CHANNELS 3 Zrotation Yrotation Xrotation
								End Site
								{
									OFFSET 0.000000 0.000000 0.000000
								}
							}
						}
					}
				}
			}
		}
	}
}
MOTION
Frames: 17
Frame Time: 0.033333
0.349367 0.183283 0.992925 96.196305 0.539030 93.176456 7.195155 4.179801 -2.185685 -3.086412 -3.894055 -1.369033 -2.307011 6.618529 -2.705304 0.000000 -0.000000 0.000000 -6.222038 -7.121377 -2.143651 1.411252 -3.885199 3.273786 6.201853 -7.283675 -5.896490 0.000000 -0.000000 0.000000 -3.934451 6.511911 0.788591 -3.686815 1.631477 8.294697 -2.262758 5.358085 -3.912050 1.378679 -17.297819 2.278187 14.131436 -6.781565 -18.730735 -22.374782 -9.454650 -8.323662 -50.819919 -5.130963 25.586729 1.349458 -52.585592 14.833422 3.147772 -17.747971 -5.087279 7.671485 17.872180 -5.699760 6.712285 34.822487 -21.454205 -38.250439 45.867594 -48.089438 -15.809017 13.386838 -5.247944 
0.348307 0.183512 0.992480 95.985588 0.397242 93.120994 7.015304 4.190800 -2.332062 -3.105884 -3.671880 -0.989225 -2.255443 6.567608 -2.803933 0.000000 -0.000000 0.000000 -6.408242 -7.065446 -2.469086 1.320134 -4.047755 3.840716 6.189531 -7.007403 -6.041760 0.000000 -0.000000 0.000000 -4.066898 6.639440 0.978936 -3.045484 1.794663 8.920545 -2.018042 5.371504 -4.221317 1.117701 -16.689469 2.091839 13.756841 -7.362903 -18.415740 -22.637526 -8.920255 -8.145845 -51.292137 -5.617950 25.569026 1.298069 -52.897595 14.762059 3.232175 -17.855246 -4.907147 9.792915 17.776264 -4.647198 8.984279 34.625174 -19.277957 -36.645390 47.292434 -45.868853 -15.847108 14.452519 -4.752784 
0.346913 0.183805 0.992119 95.805964 0.264262 93.093844 6.854942 4.166371 -2.579684 -3.150809 -3.506054 -0.529826 -2.161287 6.580971 -2.902780 0.000000 -0.000000 0.000000 -6.619522 -7.077440 -2.794574 1.323438 -4.070235 4.305226 6.168960 -6.829258 -6.087714 0.000000 -0.000000 0.000000 -4.047352 6.840917 1.257214 -2.549411 1.983405 9.508460 -1.846731 5.436418 -4.530056 0.927910 -16.172209 1.781519 13.570828 -8.142928 -17.981993 -22.861777 -8.701152 -7.836497 -51.433036 -6.094406 25.676718 0.981716 -53.253198 14.657070 3.296809 -17.867386 -4.632340 11.524224 17.752493 -3.580782 11.235998 33.691543 -16.955977 -34.899094 48.357137 -44.043215 -15.501375 14.624487 -4.653969 
0.345516 0.184130 0.991795 95.737023 0.126153 93.113889 6.685206 4.195974 -2.919631 -3.185689 -3.449458 -0.053460 -2.079334 6.539076 -3.023597 0.000000 -0.000000 0.000000 -6.816616 -7.067111 -3.115168 1.332768 -4.139678 4.693042 6.113041 -6.707640 -6.146096 0.000000 -0.000000 0.000000 -3.919696 7.003546 1.453968 -2.127492 2.132962 10.126332 -1.683274 5.450431 -4.740010 0.806267 -15.737996 1.537283 12.965167 -8.689195 -17.928467 -23.166364 -8.576883 -7.645133 -51.417642 -6.449582 25.819297 0.644018 -53.518220 14.749162 3.342413 -17.828235 -4.328836 13.127237 17.810119 -2.475448 13.351690 32.754881 -14.562132 -33.486326 49.042470 -42.412464 -15.757210 14.391728 -5.666209 
0.344566 0.184401 0.991556 95.745694 0.030888 93.146908 6.568705 4.233563 -3.093446 -3.212793 -3.438618 0.128887 -2.016164 6.489205 -3.053083 0.000000 -0.000000 0.000000 -6.968727 -7.101170 -3.298548 1.356269 -4.221099 4.866203 6.101124 -6.604724 -6.143985 0.000000 -0.000000 0.000000 -3.804296 7.128337 1.412530 -1.714186 2.197573 10.963758 -1.551743 5.575036 -4.955876 0.562702 -15.318547 1.315472 12.620584 -9.372031 -17.800009 -23.385647 -8.461580 -7.407797 -51.501587 -6.932925 25.941098 0.214964 -53.555192 14.885664 3.020686 -17.780987 -4.176328 14.751121 17.772783 -1.501717 15.090701 32.017367 -12.767999 -32.050126 49.223515 -40.483298 -15.286797 14.185875 -5.922304 
0.343623 0.184767 0.991427 95.931765 -0.049558 93.196608 6.435220 4.317768 -3.226775 -3.197637 -3.637966 0.115591 -1.974433 6.481277 -3.045860 0.000000 -0.000000 0.000000 -7.104308 -7.150827 -3.398146 1.422179 -4.284256 4.865623 6.056244 -6.684701 -6.110444 0.000000 -0.000000 0.000000 -3.639300 7.159268 1.634489 -1.347091 2.244073 11.348324 -1.417239 5.663297 -5.091940 0.212822 -15.071346 0.956244 12.291352 -10.071936 -17.358354 -23.735157 -8.226772 -7.444054 -51.508861 -7.219822 26.329573 -0.260390 -53.499160 14.892229 3.068289 -17.725545 -3.789031 16.194886 17.757716 -0.940370 16.138696 30.932438 -10.427607 -29.848215 49.290188 -38.903247 -16.433110 13.949991 -6.970489 
0.342917 0.185047 0.991234 96.242290 -0.057169 93.283876 6.373250 4.297534 -3.387183 -3.148759 -3.853323 0.066769 -1.967596 6.452043 -3.026606 0.000000 -0.000000 0.000000 -7.115905 -7.210843 -3.480457 1.453187 -4.384811 4.847493 5.999605 -6.827442 -6.075218 0.000000 -0.000000 0.000000 -3.440070 7.231205 2.027469 -0.984726 2.337589 11.192989 -1.204146 5.673362 -5.093737 -0.165400 -14.972035 0.898633 11.678835 -10.525325 -17.320094 -24.184772 -8.147607 -7.159994 -51.500128 -7.458856 26.490780 -0.455810 -53.424483 14.850398 3.292258 -17.732595 -3.735540 17.244066 17.754084 -0.707761 18.028673 29.487998 -8.643689 -28.222720 49.342483 -36.938294 -15.710451 13.636657 -6.841164 
0.342431 0.185288 0.990918 96.584648 -0.123504 93.392524 6.295058 4.211833 -3.542745 -3.153173 -3.993447 -0.001900 -1.968827 6.361938 -2.932857 0.000000 -0.000000 0.000000 -7.210683 -7.290354 -3.581789 1.497331 -4.648513 4.890001 5.945907 -6.840055 -6.064001 0.000000 -0.000000 0.000000 -3.383509 7.261107 2.146172 -0.675553 2.331187 11.484750 -1.071515 5.719722 -5.215193 -0.469624 -14.633375 0.694990 11.420386 -10.971640 -17.323075 -24.354825 -8.012036 -6.976579 -51.654165 -7.731339 26.474412 -0.703198 -53.336385 14.744296 3.022916 -17.877893 -3.458254 18.468300 17.588607 -0.208351 19.412267 28.557425 -7.703576 -26.758320 49.124284 -35.623616 -14.527108 13.582453 -6.297637 
0.342125 0.185717 0.990595 96.904880 -0.196354 93.492012 6.233294 4.128327 -3.669126 -3.187984 -4.138834 -0.042093 -1.938901 6.296697 -2.897521 0.000000 -0.000000 0.000000 -7.300709 -7.339372 -3.651430 1.511381 -4.808021 4.952483 5.848035 -6.922683 -6.061413 0.000000 -0.000000 0.000000 -3.293353 7.351368 2.305063 -0.508804 2.404850 11.658270 -0.973666 5.586652 -5.219512 -0.511630 -14.309182 0.380275 11.058434 -11.413202 -17.336382 -24.372514 -7.712310 -7.167718 -51.913061 -7.852803 26.886647 -0.823665 -53.294203 14.364037 3.100611 -17.761861 -2.867855 18.836249 17.237450 0.253705 20.916298 27.938206 -5.809740 -25.441444 48.460059 -34.803863 -15.325476 13.167037 -6.831011 
0.341954 0.185784 0.990334 97.306101 -0.232136 93.612723 6.229875 4.060618 -3.835611 -3.251395 -4.376644 -0.057185 -1.921912 6.217324 -2.848219 0.000000 -0.000000 0.000000 -7.334324 -7.387827 -3.778718 1.543314 -4.942903 5.085804 5.762140 -7.147322 -6.028896 0.000000 -0.000000 0.000000 -3.363831 7.346213 2.427713 -0.234062 2.425834 11.672787 -0.772687 5.477468 -5.120178 -0.476658 -13.980839 0.074101 10.536256 -11.683599 -17.394506 -24.275297 -7.059877 -7.151612 -52.385420 -8.248619 27.013751 -1.072193 -53.196565 14.743486 3.106081 -17.552836 -2.868996 19.780238 16.480016 0.781224 22.671337 27.915243 -4.470872 -23.218822 46.922730 -31.967612 -13.987132 11.759651 -8.316750 
0.342320 0.185943 0.990302 97.521904 -0.252455 93.629850 6.213661 4.062073 -3.838157 -3.281596 -4.574275 -0.118796 -1.837261 6.226670 -2.779149 0.000000 -0.000000 0.000000 -7.355173 -7.430557 -3.740041 1.563949 -4.958188 5.071122 5.708697 -7.306578 -6.041341 0.000000 -0.000000 0.000000 -3.248152 7.356585 2.521447 -0.258779 2.519823 11.643130 -0.763899 5.564358 -5.068512 -0.443803 -14.042106 -0.004016 10.464488 -11.948209 -17.655712 -24.357471 -7.045545 -7.057682 -52.349477 -8.326835 27.055038 -1.153297 -53.181261 14.713324 3.030094 -17.466080 -2.704334 19.908351 16.336088 1.001449 23.908377 27.185021 -3.856847 -22.453110 46.145024 -30.921033 -12.767934 10.628621 -8.897819 
0.342988 0.186023 0.990355 97.655756 -0.264273 93.606598 6.201834 3.976614 -3.726065 -3.268274 -4.617563 -0.261720 -1.786968 6.229536 -2.725535 0.000000 -0.000000 0.000000 -7.373654 -7.443540 -3.653262 1.577985 -5.011311 5.035769 5.653186 -7.352774 -6.008759 0.000000 -0.000000 0.000000 -3.209344 7.367483 2.508390 -0.268971 2.599143 11.701058 -0.740476 5.535653 -5.057035 -0.329979 -14.083016 -0.013225 10.391265 -12.124580 -17.960460 -24.422940 -6.890443 -7.147300 -52.259777 -8.308574 27.093416 -1.439498 -53.134652 14.575519 2.541674 -17.669863 -2.703089 19.966200 16.244776 0.978927 24.666599 27.041225 -3.470324 -21.753552 44.640846 -30.170638 -9.864838 9.872570 -9.448470 
0.344047 0.186019 0.990366 97.699631 -0.287869 93.519960 6.162109 4.012742 -3.550092 -3.238502 -4.833550 -0.347910 -1.771969 6.359550 -2.733122 0.000000 -0.000000 0.000000 -7.386692 -7.424458 -3.490349 1.568244 -4.867937 4.995923 5.587291 -7.574399 -6.011560 0.000000 -0.000000 0.000000 -3.232189 7.377004 2.412302 -0.278140 2.687862 11.803869 -0.763183 5.476811 -4.970574 -0.108718 -14.212499 -0.209968 10.418898 -12.461632 -17.978628 -24.384179 -6.751301 -7.261856 -52.241011 -8.323108 27.287162 -1.521893 -53.075399 14.345461 2.720743 -17.390533 -2.621439 19.679615 16.171917 0.707145 25.528922 27.020458 -2.500918 -21.038604 43.661722 -30.083692 -10.723318 7.954608 -11.194705 
0.345035 0.185899 0.990347 97.716313 -0.259144 93.454277 6.203019 3.976083 -3.399770 -3.234094 -4.920681 -0.425839 -1.699649 6.513405 -2.817407 0.000000 -0.000000 0.000000 -7.341273 -7.419203 -3.365045 1.572030 -4.655950 4.965364 5.534088 -7.787932 -5.981546 0.000000 -0.000000 0.000000 -3.228699 7.377146 2.363700 -0.376271 2.738405 11.652615 -0.755502 5.430631 -4.825388 0.138340 -14.300539 -0.346513 10.400821 -12.443544 -18.020415 -24.284772 -6.751009 -7.334124 -52.212362 -8.187162 27.374118 -1.601662 -53.105650 14.250371 2.571966 -17.128731 -2.497942 19.130675 16.198866 0.481661 25.806659 27.198370 -2.122552 -20.467825 42.507532 -30.126552 -9.680787 5.938365 -13.149961 
0.346088 0.185726 0.990339 97.646700 -0.227208 93.385575 6.249405 3.995950 -3.214935 -3.241009 -5.017111 -0.526385 -1.623826 6.641163 -2.753011 0.000000 -0.000000 0.000000 -7.286275 -7.372738 -3.237241 1.569267 -4.436924 4.905227 5.490111 -7.966644 -5.945128 0.000000 -0.000000 0.000000 -3.195808 7.335197 2.304271 -0.612537 2.796952 11.386989 -0.802649 5.409965 -4.663215 0.530867 -14.273738 -0.342691 10.411513 -12.178791 -18.105289 -24.032945 -6.822897 -7.518993 -52.252269 -7.913635 27.529601 -1.564493 -53.088295 14.113124 2.095514 -16.823772 -2.538647 18.111158 16.366933 0.216778 26.120986 27.524283 -1.632052 -20.169829 41.189311 -30.375737 -8.330928 4.239953 -15.667270 
0.347047 0.185637 0.990343 97.607465 -0.186739 93.315483 6.333182 3.953886 -3.047025 -3.302925 -5.199367 -0.621162 -1.541836 6.799555 -2.713011 0.000000 -0.000000 0.000000 -7.203499 -7.321616 -3.101350 1.547070 -4.235165 4.827154 5.431211 -8.206090 -5.921821 0.000000 -0.000000 0.000000 -3.145364 7.275987 2.223585 -0.914897 2.794378 10.996025 -0.857402 5.412334 -4.397282 0.905483 -14.515721 -0.234800 10.594014 -11.938268 -18.081749 -23.851796 -7.007389 -7.692465 -52.227135 -7.652250 27.724417 -1.368954 -52.934991 13.673437 1.762998 -16.690884 -2.790842 16.951688 16.674281 -0.440484 26.111001 27.858918 -1.265579 -19.975282 39.888367 -30.836641 -6.101226 2.388796 -18.696033 
0.348240 0.185446 0.990356 97.557963 -0.107217 93.255871 6.459013 3.988905 -2.924918 -3.360041 -5.308780 -0.634915 -1.617955 6.961699 -2.787594 0.000000 -0.000000 0.000000 -7.053633 -7.304412 -3.000781 1.488161 -4.040315 4.821012 5.378262 -8.385368 -5.950185 0.000000 -0.000000 0.000000 -3.122076 7.259314 1.971926 -1.105886 2.791093 11.009474 -0.933155 5.436692 -4.542076 1.031509 -15.142948 0.048407 10.869367 -11.691323 -18.004554 -23.870153 -7.340286 -7.601983 -52.073538 -7.438239 27.586868 -1.376071 -52.732899 13.459392 1.753953 -16.593304 -2.893609 15.655620 17.085768 -1.235121 25.202270 28.099855 -1.831880 -18.718258 38.758013 -30.738264 -4.707616 1.716739 -20.949265 
